<svg xmlns="http://www.w3.org/2000/svg" viewBox="0 0 48 48" fill="none">
  <defs>
    <linearGradient id="mk-shield" x1="4" y1="2" x2="44" y2="46" gradientUnits="userSpaceOnUse">
      <stop stop-color="#E53935"/>
      <stop offset="0.55" stop-color="#C62828"/>
      <stop offset="1" stop-color="#B71C1C"/>
    </linearGradient>
    <linearGradient id="mk-gold" x1="0" y1="0" x2="1" y2="1" gradientUnits="objectBoundingBox">
      <stop stop-color="#FFE082"/>
      <stop offset="1" stop-color="#F9A825"/>
    </linearGradient>
  </defs>

  <!-- Shield -->
  <path d="M24 2L43 8.5V24C43 35 35 43 24 46.5C13 43 5 35 5 24V8.5L24 2Z" fill="url(#mk-shield)"/>
  <path d="M24 2L43 8.5V24C43 35 35 43 24 46.5C13 43 5 35 5 24V8.5L24 2Z" stroke="#F9A825" stroke-width="1.4" fill="none" opacity="0.8"/>
  <path d="M24 6L39 11V24C39 32.5 32.5 39.5 24 42.5C15.5 39.5 9 32.5 9 24V11L24 6Z" stroke="rgba(255,255,255,0.12)" stroke-width="0.8" fill="none"/>

  <!-- Football -->
  <circle cx="24" cy="24" r="10.5" fill="white" opacity="0.97"/>
  <path d="M24 15.5L27 20H21L24 15.5Z" fill="#C62828"/>
  <path d="M21 20L24 24L17.5 24L21 20Z" fill="#C62828"/>
  <path d="M27 20L30.5 24L24 24L27 20Z" fill="#C62828"/>
  <path d="M17.5 24L21 28L24 24L17.5 24Z" fill="#C62828"/>
  <path d="M30.5 24L27 28L24 24L30.5 24Z" fill="#C62828"/>
  <path d="M21 28L24 32.5L27 28H21Z" fill="#C62828"/>

  <!-- Gold star -->
  <path d="M39 5L40.2 8.8L44.2 8.8L41 11.2L42.2 15L39 12.8L35.8 15L37 11.2L33.8 8.8L37.8 8.8L39 5Z" fill="url(#mk-gold)"/>

  <!-- Lightning bolt -->
  <path d="M37 26L33 33H36.5L34 40L41 31H37.5L40 26Z" fill="url(#mk-gold)" opacity="0.9"/>
</svg>
